The Daytona 500 aired 2/20/2011 on fox.

Been sitting on this for a few days debating on whether to upload. This is a bit larger file than I like to upload, so if you would want me to continue on with the rest of the series this year then please seed #1 and some feedback is always welcome. I have encoded this several times trying to find a happy medium of file size and quality.

General
Complete name                    :NASCAR 2011 Daytona 500 HDTV_JHW.mp4
Format                           : MPEG-4
Format profile                   : Base Media / Version 2
Codec ID                         : mp42
File size                        : 1.22 GiB
Duration                         : 3h 11mn
Overall bit rate                 : 913 Kbps
Encoded date                     : UTC 2011-02-21 09:28:05
Tagged date                      : UTC 2011-02-21 09:28:05
Writing library                  : AVS 

Video
ID                               : 1
Format                           : AVC
Format/Info                      : Advanced Video Codec
Format profile                   : Main@L5.1
Format settings, CABAC           : Yes
Format settings, ReFrames        : 2 frames
Format settings, GOP             : M=1, N=2
Codec ID                         : avc1
Codec ID/Info                    : Advanced Video Coding
Duration                         : 3h 11mn
Bit rate mode                    : Variable
Bit rate                         : 801 Kbps
Width                            : 720 pixels
Height                           : 400 pixels
Display aspect ratio             : 16:9
Frame rate mode                  : Constant
Frame rate                       : 29.970 fps
Color space                      : YUV
Chroma subsampling               : 4:2:0
Bit depth                        : 8 bits
Scan type                        : Progressive
Bits/(Pixel*Frame)               : 0.093
Stream size                      : 1.07 GiB (88%)
Language                         : English
Encoded date                     : UTC 2011-02-21 09:28:05
Tagged date                      : UTC 2011-02-21 09:28:05

Audio
ID                               : 2
Format                           : AAC
Format/Info                      : Advanced Audio Codec
Format profile                   : LC
Codec ID                         : 40
Duration                         : 3h 11mn
Bit rate mode                    : Constant
Bit rate                         : 103 Kbps
Nominal bit rate                 : 96.0 Kbps
Channel(s)                       : 2 channels
Channel positions                : Front: L R
Sampling rate                    : 48.0 KHz
Compression mode                 : Lossy
Stream size                      : 141 MiB (11%)
Language                         : English
Encoded date                     : UTC 2011-02-21 09:28:05
Tagged date                      : UTC 2011-02-21 09:28:05

[img]http://img202.imageshack.us/img202/2315/vlcsnap2011022209h20m41.png[/img]

[img]http://img10.imageshack.us/img10/942/vlcsnap2011022209h20m51.png[/img]

[img]http://img8.imageshack.us/img8/3166/vlcsnap2011022209h20m55.png[/img]

[img]http://img402.imageshack.us/img402/1984/vlcsnap2011022209h20m59.png[/img]

[img]http://img830.imageshack.us/img830/3244/vlcsnap2011022209h21m13.png[/img]

[img]http://img10.imageshack.us/img10/567/vlcsnap2011022209h22m04.png[/img]

[img]http://img263.imageshack.us/img263/9458/vlcsnap2011022209h22m27.png[/img]

[img]http://img20.imageshack.us/img20/438/vlcsnap2011022209h22m34.png[/img]